<?xml version="1.0" encoding="UTF-8"?>
<svg id="Layer_1" xmlns="http://www.w3.org/2000/svg" version="1.1" viewBox="0 0 150 150">
  <!-- Generator: Adobe Illustrator 29.5.1, SVG Export Plug-In . SVG Version: 2.1.0 Build 141)  -->
  <defs>
    <style>
      .st0 {
        fill: #bac4e0;
      }

      .st1 {
        fill: #fff;
      }
    </style>
  </defs>
  <circle class="st0" cx="75.1" cy="75.1" r="74.9" transform="translate(-14.9 131.5) rotate(-77.1)"/>
  <ellipse class="st1" cx="75.1" cy="65.5" rx="29.1" ry="40.4"/>
  <path class="st1" d="M74.6,103.3c-24.4,0-46.2,5.8-60.7,15,13.6,19.2,35.9,31.7,61.2,31.7s47.3-12.3,60.9-31.3c-14.5-9.4-36.6-15.4-61.3-15.4Z"/>
  <rect class="st1" x="59.5" y="75.1" width="31.1" height="47.6" rx="9.6" ry="9.6"/>
  <path class="st1" d="M50.5,67.8c.9,6.5-.6,12.1-3.2,12.5-2.6.4-5.5-4.4-6.4-10.9-.9-6.5.6-12.1,3.2-12.5,2.6-.4,5.5,4.4,6.4,10.9Z"/>
  <path class="st1" d="M99.6,67.8c-.9,6.5.6,12.1,3.2,12.5,2.6.4,5.5-4.4,6.4-10.9.9-6.5-.6-12.1-3.2-12.5s-5.5,4.4-6.4,10.9Z"/>
  <path class="st1" d="M47,63.9c-1-6.5-2-12.9-2.9-19.4-.4-2.3-.7-4.8.2-7,.9-2.2,3.4-4,5.6-3.1-.9-4.5,4.1-7.8,8.4-9.3,7.3-2.5,15-3.8,22.7-2.8,7.6,1,15.1,4.4,20.2,10.1,1.6,1.8,3,3.9,3.8,6.2,1.5,4.4.5,9.3-.4,13.8-.8,3.6-1.5,7.3-2.3,10.9-.2.8-.4,1.7-.9,2.3-.9,1-2.4,1.1-3.8,1.1-14.5,0-28.9,0-43.4,0-2.7,0-6.3-.7-6.6-3.4"/>
</svg>